<svg xmlns="http://www.w3.org/2000/svg" viewBox="0 0 289.52 32.52"><path d="M2.28,2.23l3,4.38H3.55L0,2.23Z"/><path d="M10.48,3.48,13.89,20l1,6.2H13.5L8.67,3.48Zm4.64,16.71L19.2,3.48h1.41l-1.05,5L15.2,26.23H13.84ZM20.78,3.48l4,16.71,1.26,6H24.7L20.45,8.48l-1.06-5ZM26.06,20,29.42,3.48h1.81L26.41,26.23H25Z"/><path d="M36.72,3.48V26.23h-1.8V3.48Zm10.05,0V5.16H36.22V3.48ZM45.52,13.66v1.68h-9.3V13.66Zm1.32,10.9v1.67H36.22V24.56Z"/><path d="M57.47,15.3H52.2l0-1.66h4.58a5.13,5.13,0,0,0,2.32-.48,3.41,3.41,0,0,0,1.47-1.44,4.89,4.89,0,0,0,.51-2.33A5,5,0,0,0,60.55,7a3,3,0,0,0-1.48-1.4,5.84,5.84,0,0,0-2.48-.46h-4V26.23h-1.8V3.48h5.75a8.76,8.76,0,0,1,2.61.36,5.14,5.14,0,0,1,2,1.07,4.68,4.68,0,0,1,1.24,1.86,7.4,7.4,0,0,1,.43,2.67A5.76,5.76,0,0,1,62.3,12a4.7,4.7,0,0,1-1.52,1.84,4.89,4.89,0,0,1-2.33.89Zm-.13,10.93H51.58l1-1.67h4.81A4.48,4.48,0,0,0,59.69,24a3.83,3.83,0,0,0,1.49-1.62,5.6,5.6,0,0,0,.52-2.53,5.7,5.7,0,0,0-.45-2.31,3.65,3.65,0,0,0-1.39-1.62,4.37,4.37,0,0,0-2.39-.6H54.06l0-1.66h4.77l.34.59a4.5,4.5,0,0,1,2.28,1,5.29,5.29,0,0,1,1.49,2,6.5,6.5,0,0,1,.53,2.63,7.33,7.33,0,0,1-.77,3.5,5.28,5.28,0,0,1-2.16,2.18A6.67,6.67,0,0,1,57.34,26.23Z"/><path d="M84.53,20.59a4.66,4.66,0,0,0-.39-2,4.13,4.13,0,0,0-1.3-1.54,11.84,11.84,0,0,0-2.48-1.35,14.39,14.39,0,0,1-2.86-1.45,5.72,5.72,0,0,1-1.85-2A6.61,6.61,0,0,1,75,9.14,6.83,6.83,0,0,1,75.69,6a5,5,0,0,1,1.93-2.08,6.22,6.22,0,0,1,5.27-.27A4.55,4.55,0,0,1,84.64,5a6.23,6.23,0,0,1,1.1,2.2,10.54,10.54,0,0,1,.38,3H84.41a8.89,8.89,0,0,0-.25-2.13,5.43,5.43,0,0,0-.75-1.69,3.3,3.3,0,0,0-2.86-1.53,3.77,3.77,0,0,0-2.14.58A3.3,3.3,0,0,0,77.15,7a5.41,5.41,0,0,0-.4,2.12,5.33,5.33,0,0,0,.35,2,3.83,3.83,0,0,0,1.26,1.54A10.88,10.88,0,0,0,81,14a14.29,14.29,0,0,1,2.85,1.45,5.55,5.55,0,0,1,1.82,2,6.55,6.55,0,0,1,.65,3.07,6.73,6.73,0,0,1-.73,3.23,5,5,0,0,1-2,2.05,6.31,6.31,0,0,1-3.08.72,6.89,6.89,0,0,1-2.2-.35A5.36,5.36,0,0,1,74.84,23a8.94,8.94,0,0,1-.53-3.28h1.74a6.77,6.77,0,0,0,.4,2.51,4.22,4.22,0,0,0,1,1.59,4,4,0,0,0,1.41.84,4.81,4.81,0,0,0,1.53.25,4.21,4.21,0,0,0,2.22-.56,3.81,3.81,0,0,0,1.41-1.54A4.84,4.84,0,0,0,84.53,20.59Zm-3.3,5v3.87H79.78V25.61ZM81.31,0V4.17H79.86V0Z"/><path d="M96.72,1.28l.39,1.25A4.2,4.2,0,0,0,94.7,4.81,9.11,9.11,0,0,0,94,8.55v3.53a7.24,7.24,0,0,1-.47,2.69A4.09,4.09,0,0,1,92,16.68a4.77,4.77,0,0,1-2.73.71v-1.3A2.52,2.52,0,0,0,91.55,15a5.34,5.34,0,0,0,.7-2.93V8.55a11.17,11.17,0,0,1,.41-3.07A6.28,6.28,0,0,1,94,3,6.35,6.35,0,0,1,96.72,1.28Zm.42,30-.42,1.27A6.56,6.56,0,0,1,94,30.84a6.24,6.24,0,0,1-1.38-2.49,11,11,0,0,1-.41-3.05V21.77a6.67,6.67,0,0,0-.3-2.13,2.9,2.9,0,0,0-1-1.39,2.76,2.76,0,0,0-1.71-.5v-1.3a4.77,4.77,0,0,1,2.73.71,4,4,0,0,1,1.51,1.91,7.29,7.29,0,0,1,.47,2.7V25.3a10.1,10.1,0,0,0,.32,2.59,5.43,5.43,0,0,0,1,2.06A4.34,4.34,0,0,0,97.14,31.25Z"/><path d="M102.94,3.48V26.23h-2.88V3.48Zm2.28,22.75h-3.88l0-2.45h3.84a6.27,6.27,0,0,0,3.33-.79,4.63,4.63,0,0,0,1.89-2.34,10.76,10.76,0,0,0,.61-3.85V12.91a12.45,12.45,0,0,0-.35-3.13,5.72,5.72,0,0,0-1-2.16,4.11,4.11,0,0,0-1.73-1.25A6.6,6.6,0,0,0,105.48,6h-4.21V3.48h4.21a9.49,9.49,0,0,1,3.47.61,7.15,7.15,0,0,1,2.66,1.79,8,8,0,0,1,1.69,3,12.79,12.79,0,0,1,.59,4.1V16.8a12.73,12.73,0,0,1-.59,4.09,7.73,7.73,0,0,1-1.71,2.95,7.1,7.1,0,0,1-2.72,1.79A10.39,10.39,0,0,1,105.22,26.23Z"/><path d="M121.2,3.48V26.23h-2.87V3.48Zm9.21,0V6h-9.72V3.48Zm-1.18,9.79v2.45h-8.54V13.27Zm1.33,10.51v2.45h-9.87V23.78Z"/><path d="M144.19,20.48a5,5,0,0,0-.19-1.41,2.75,2.75,0,0,0-.66-1.12A5.1,5.1,0,0,0,142,17a16.43,16.43,0,0,0-2.14-.92A17.76,17.76,0,0,1,137.34,15a8.29,8.29,0,0,1-1.94-1.41,5.55,5.55,0,0,1-1.24-1.83,5.84,5.84,0,0,1-.44-2.36,6.33,6.33,0,0,1,.46-2.45,5.72,5.72,0,0,1,1.31-2,5.91,5.91,0,0,1,2.06-1.31,7.35,7.35,0,0,1,2.68-.47,6.84,6.84,0,0,1,3.75,1,6.34,6.34,0,0,1,2.3,2.55,7.4,7.4,0,0,1,.78,3.35h-2.87a5.83,5.83,0,0,0-.42-2.28,3.33,3.33,0,0,0-1.28-1.56,4,4,0,0,0-2.26-.57,4,4,0,0,0-2,.48A3,3,0,0,0,137,7.44a4.52,4.52,0,0,0-.38,1.89,3.21,3.21,0,0,0,.25,1.3,3.3,3.3,0,0,0,.77,1.09,6,6,0,0,0,1.32.92,13.93,13.93,0,0,0,1.86.81,15.84,15.84,0,0,1,2.86,1.22,7.64,7.64,0,0,1,1.94,1.51,5.3,5.3,0,0,1,1.1,1.89,7.35,7.35,0,0,1,.35,2.38A6.54,6.54,0,0,1,146.6,23a5.3,5.3,0,0,1-1.33,1.92,6.21,6.21,0,0,1-2.11,1.23,8.63,8.63,0,0,1-2.78.43,8.21,8.21,0,0,1-2.64-.44,7.15,7.15,0,0,1-2.33-1.31,6.56,6.56,0,0,1-1.68-2.17,6.85,6.85,0,0,1-.62-3H136a5.28,5.28,0,0,0,.35,2,3.74,3.74,0,0,0,.95,1.38,3.93,3.93,0,0,0,1.4.81,5.5,5.5,0,0,0,1.7.25,4.6,4.6,0,0,0,2.1-.43,3,3,0,0,0,1.28-1.25A4.19,4.19,0,0,0,144.19,20.48Z"/><path d="M153.83,3.48V26.23H151V3.48Z"/><path d="M173.08,14.91v8.48A13,13,0,0,1,172,24.64,7,7,0,0,1,169.83,26a9.35,9.35,0,0,1-3.56.58A8.41,8.41,0,0,1,163,26a6.58,6.58,0,0,1-2.52-1.79,8.36,8.36,0,0,1-1.63-3,13.53,13.53,0,0,1-.58-4.2V12.72a15.86,15.86,0,0,1,.49-4.19,7.89,7.89,0,0,1,1.44-3,6,6,0,0,1,2.39-1.78,8.62,8.62,0,0,1,3.34-.6,7.87,7.87,0,0,1,3.75.83,5.82,5.82,0,0,1,2.4,2.39,8.86,8.86,0,0,1,1,3.75H170.2a6.72,6.72,0,0,0-.59-2.41,3.48,3.48,0,0,0-1.38-1.55A4.27,4.27,0,0,0,166,5.64a5.08,5.08,0,0,0-2.22.44,3.66,3.66,0,0,0-1.48,1.31,6.12,6.12,0,0,0-.82,2.2,15.81,15.81,0,0,0-.26,3.1V17a12.27,12.27,0,0,0,.36,3.16,6.34,6.34,0,0,0,1,2.22,4.15,4.15,0,0,0,1.6,1.3,5,5,0,0,0,2.11.43,6.26,6.26,0,0,0,2.1-.28,3.72,3.72,0,0,0,1.17-.64l.67-.58V17.34h-4.17V14.91Z"/><path d="M192.61,3.48V26.23h-2.89L180.61,8.69V26.23h-2.88V3.48h2.88l9.16,17.6V3.48Z"/><path d="M196,32.52l-.42-1.27a4.25,4.25,0,0,0,1.83-1.3,5.74,5.74,0,0,0,1-2.06,10.57,10.57,0,0,0,.31-2.59V21.77a7.15,7.15,0,0,1,.48-2.68,4,4,0,0,1,1.53-1.87,4.8,4.8,0,0,1,2.71-.69v1.22a2.5,2.5,0,0,0-2.27,1.09,5.32,5.32,0,0,0-.7,2.93V25.3a11,11,0,0,1-.41,3.05,6.34,6.34,0,0,1-1.37,2.49A6.53,6.53,0,0,1,196,32.52Zm-.39-30L196,1.28A6.33,6.33,0,0,1,198.69,3a6.39,6.39,0,0,1,1.37,2.52,11.17,11.17,0,0,1,.41,3.07v3.53a6.76,6.76,0,0,0,.3,2.11,2.59,2.59,0,0,0,2.67,1.9V17.3a4.8,4.8,0,0,1-2.71-.69,4,4,0,0,1-1.53-1.87,7,7,0,0,1-.48-2.66V8.55a10.29,10.29,0,0,0-.31-2.62,5.64,5.64,0,0,0-1-2.08A4,4,0,0,0,195.61,2.53Z"/><path d="M228.88,3.48V26.23h-1.8L216.38,6.84V26.23h-1.82V3.48h1.82l10.71,19.4V3.48Z"/><path d="M248.39,12.41v4.92a14,14,0,0,1-.51,4,8.07,8.07,0,0,1-1.46,2.9A6.15,6.15,0,0,1,244.11,26a7.53,7.53,0,0,1-3.06.6,7.38,7.38,0,0,1-3-.6,6.29,6.29,0,0,1-2.33-1.76,8,8,0,0,1-1.49-2.9,13.63,13.63,0,0,1-.53-4V12.41a13.84,13.84,0,0,1,.52-4,8,8,0,0,1,1.47-2.89A6.34,6.34,0,0,1,238,3.77a8.08,8.08,0,0,1,6.11,0,6.26,6.26,0,0,1,2.32,1.76,8,8,0,0,1,1.47,2.89A14.21,14.21,0,0,1,248.39,12.41Zm-1.78,4.92V12.38a12.72,12.72,0,0,0-.37-3.28,6.52,6.52,0,0,0-1.07-2.33,4.35,4.35,0,0,0-1.75-1.41,5.87,5.87,0,0,0-2.4-.47,5.75,5.75,0,0,0-2.36.47,4.49,4.49,0,0,0-1.75,1.41,6.7,6.7,0,0,0-1.08,2.33,12.69,12.69,0,0,0-.38,3.28v4.95a12.21,12.21,0,0,0,.39,3.27,6.74,6.74,0,0,0,1.1,2.35,4.45,4.45,0,0,0,1.76,1.41,5.67,5.67,0,0,0,2.35.47,5.87,5.87,0,0,0,2.4-.47A4.39,4.39,0,0,0,245.19,23a6.7,6.7,0,0,0,1.06-2.35A13.18,13.18,0,0,0,246.61,17.33Z"/><path d="M265.75,3.48V5.16h-14.7V3.48Zm-6.47,0V26.23H257.5V3.48Z"/><path d="M271.22,3.48V26.23h-1.8V3.48Zm10,0V5.16H270.72V3.48ZM280,13.66v1.68h-9.3V13.66Zm1.32,10.9v1.67H270.72V24.56Z"/><path d="M286.53,2.23l3,4.38H287.8l-3.55-4.38Z"/></svg>